<?xml version="1.0" encoding="UTF-8" standalone="no"?>
<!-- Created with Inkscape (http://www.inkscape.org/) -->

<svg
   width="100mm"
   height="100mm"
   viewBox="0 0 100 100"
   version="1.1"
   id="svg5"
   inkscape:version="1.1 (c4e8f9e, 2021-05-24)"
   sodipodi:docname="frisbee.svg"
   xmlns:inkscape="http://www.inkscape.org/namespaces/inkscape"
   xmlns:sodipodi="http://sodipodi.sourceforge.net/DTD/sodipodi-0.dtd"
   xmlns="http://www.w3.org/2000/svg"
   xmlns:svg="http://www.w3.org/2000/svg">
  <sodipodi:namedview
     id="namedview7"
     pagecolor="#ffffff"
     bordercolor="#666666"
     borderopacity="1.0"
     inkscape:pageshadow="2"
     inkscape:pageopacity="0.0"
     inkscape:pagecheckerboard="0"
     inkscape:document-units="mm"
     showgrid="false"
     inkscape:zoom="1.1389938"
     inkscape:cx="208.07839"
     inkscape:cy="172.95968"
     inkscape:window-width="1440"
     inkscape:window-height="782"
     inkscape:window-x="0"
     inkscape:window-y="25"
     inkscape:window-maximized="0"
     inkscape:current-layer="layer1"
     fit-margin-top="1"
     fit-margin-left="0"
     fit-margin-right="0"
     fit-margin-bottom="0"
     lock-margins="true" />
  <defs
     id="defs2" />
  <g
     inkscape:label="Ebene 1"
     inkscape:groupmode="layer"
     id="layer1"
     transform="translate(-55.36266,-104.47972)">
    <g
       id="g1136"
       transform="translate(11.034483,5.4593873)">
      <path
         style="fill:#000000;stroke:none;stroke-width:0.264583px;stroke-linecap:butt;stroke-linejoin:miter;stroke-opacity:1"
         d="m 62.866738,132.944 c 1.37394,1.53985 3.244736,5.27269 3.244736,5.27269 0,0 0.85625,1.57731 0.811183,3.19967 -0.04507,1.62237 -3.019406,1.12665 -3.019406,1.12665 0,0 -2.478617,-0.45066 -4.68684,-6.7148 -2.20822,-6.26414 0.09013,-5.67829 0.09013,-5.67829 0.824423,0.1435 2.555845,1.66845 3.560197,2.79408 z"
         id="path1000"
         sodipodi:nodetypes="acscsca" />
      <path
         style="fill:#000000;stroke:none;stroke-width:0.264583px;stroke-linecap:butt;stroke-linejoin:miter;stroke-opacity:1"
         d="m 58.612436,129.64055 c 0,0 -3.757612,1.76168 1.029716,9.44136 4.787331,7.67967 5.086539,5.73483 7.879149,4.88707 0,0 0.01454,1.69598 -0.648284,1.99472 0,0 -4.438254,4.18891 -9.325323,-5.9343 -4.887065,-10.12321 -0.04987,-10.87123 -0.04987,-10.87123 0.339685,-0.22025 1.114612,0.48238 1.114612,0.48238 z"
         id="path1670"
         sodipodi:nodetypes="cscsssc" />
      <path
         style="fill:#000000;stroke:none;stroke-width:0.264583px;stroke-linecap:butt;stroke-linejoin:miter;stroke-opacity:1"
         d="m 66.475691,143.12309 c 0,0 2.717003,-2.85199 4.495073,2.00352 0.667839,1.82372 -3.150158,1.75265 -2.722729,0.84764 0.277842,-0.58828 1.766381,0.49222 1.900773,-0.12843 0.107014,-0.49422 -1.016402,-0.32709 -1.335679,-0.71922 -0.321555,-0.39492 -0.07416,-1.1064 -0.436663,-1.4641 -0.468802,-0.46259 -1.910369,7.9e-4 -1.900775,-0.53941 z"
         id="path1942"
         sodipodi:nodetypes="cssaaac" />
      <path
         style="fill:#000000;stroke:none;stroke-width:0.264583px;stroke-linecap:butt;stroke-linejoin:miter;stroke-opacity:1"
         d="m 71.152167,143.31493 c 0.559009,-0.44732 4.484378,-5.35146 5.242458,-6.09515 0.75808,-0.74369 -0.637368,2.17339 -1.736958,3.5055 -1.544006,1.8705 -4.064509,3.03697 -3.5055,2.58965 z"
         id="path2769"
         sodipodi:nodetypes="zzsz" />
      <path
         style="fill:#000000;stroke:none;stroke-width:0.264583px;stroke-linecap:butt;stroke-linejoin:miter;stroke-opacity:1"
         d="m 72.446992,143.91497 c -1.315374,1.05802 6.112211,-1.23438 8.747959,-5.21088 0.520588,-0.7854 -1.221147,0.28612 -2.273838,0.12631 -0.846753,-0.12856 -0.926264,-1.80262 -1.294824,-1.10534 -1.543657,3.109 -3.863923,5.13188 -5.179297,6.18991 z"
         id="path3459"
         sodipodi:nodetypes="zsscz" />
      <path
         style="fill:#000000;stroke:none;stroke-width:0.264583px;stroke-linecap:butt;stroke-linejoin:miter;stroke-opacity:1"
         d="m 72.237131,145.25559 c 0.224882,0.53369 10.352989,-0.78131 12.809918,-9.47992 0.469217,-1.66124 -2.034593,4.07886 -5.886872,6.81249 -3.170816,2.25007 -7.147928,2.13374 -6.923046,2.66743 z"
         id="path4555"
         sodipodi:nodetypes="zssz" />
      <path
         style="fill:#000000;stroke:none;stroke-width:0.264583px;stroke-linecap:butt;stroke-linejoin:miter;stroke-opacity:1"
         d="m 79.919861,132.54483 c 1.002277,2.03145 2.513144,1.18832 3.053418,1.59309 0.630554,0.47241 -3.751793,3.63273 -3.961449,3.35833 -0.421281,-0.55139 0.579551,-5.61719 0.908031,-4.95142 z"
         id="path5131"
         sodipodi:nodetypes="ssss" />
      <path
         style="fill:#000000;stroke:none;stroke-width:0.264583px;stroke-linecap:butt;stroke-linejoin:miter;stroke-opacity:1"
         d="m 81.576154,128.25509 c -0.02846,0.0963 0.729911,2.75106 2.125867,3.73755 0.161187,0.11391 0.238821,1.57257 -0.262437,1.46653 -1.188161,-0.25136 -1.991993,-0.83158 -2.645992,-1.49921 -0.388192,-0.39627 -0.551927,-1.25986 -0.332346,-1.63067 0.790404,-1.33481 1.230934,-2.46676 1.114908,-2.0742 z"
         id="path5821"
         sodipodi:nodetypes="ssssss" />
      <path
         style="fill:#000000;stroke:none;stroke-width:0.264583px;stroke-linecap:butt;stroke-linejoin:miter;stroke-opacity:1"
         d="m 84.783776,130.96662 c -0.682898,0.78538 5.437708,5.62229 5.437708,5.62229 0,0 -2.600044,-10.74684 6.84678,-15.42691 -4.160071,-0.69335 -4.506741,-4.16008 -4.506741,-4.16008 0.150103,0.94074 -2.402313,7.78256 -7.777747,13.9647 z"
         id="path7385"
         sodipodi:nodetypes="scccs" />
      <path
         style="fill:#000000;stroke:none;stroke-width:0.264583px;stroke-linecap:butt;stroke-linejoin:miter;stroke-opacity:1"
         d="m 82.581529,127.00547 c -0.649183,0.063 0.167849,2.12608 0.559496,2.23798 0.391647,0.1119 1.118992,-0.0559 1.398738,-0.33569 0.27975,-0.27975 2.349881,-2.07014 4.364067,-6.15446 2.014183,-4.08431 0.650321,-2.69057 2.29393,-5.81875 1.346206,-2.56215 1.953264,-2.19623 1.95329,-2.19656 -0.07688,-0.76161 -2.276875,-0.87179 -3.030861,1.51558 -1.08422,3.43302 -0.576472,1.94721 -1.328259,4.4296 -0.74756,2.46843 -2.629628,4.64381 -3.245075,5.09141 -0.615445,0.4476 -1.106635,1.05064 -2.965326,1.23089 z"
         id="path8041"
         sodipodi:nodetypes="sscsscssss" />
      <path
         style="fill:#000000;stroke:none;stroke-width:0.264583px;stroke-linecap:butt;stroke-linejoin:miter;stroke-opacity:1"
         d="m 83.675517,124.81126 c 0,0 2.680798,-0.59133 4.630386,-4.5109 1.055518,-2.12208 -4.782058,4.43054 -4.630386,4.5109 z"
         id="path8503"
         sodipodi:nodetypes="csc" />
      <path
         style="fill:#000000;stroke:none;stroke-width:0.264583px;stroke-linecap:butt;stroke-linejoin:miter;stroke-opacity:1"
         d="m 82.89881,118.65732 c -0.278811,0.007 0.466329,4.10593 1.493671,3.52507 2.406166,-1.36044 4.540763,-5.25773 4.122536,-5.16811 -0.418226,0.0896 -0.98099,1.53203 -5.616207,1.64304 z"
         id="path8699"
         sodipodi:nodetypes="ssss" />
      <path
         style="fill:#000000;stroke:none;stroke-width:0.264583px;stroke-linecap:butt;stroke-linejoin:miter;stroke-opacity:1"
         d="m 86.274873,111.08196 0.157332,3.27248 c 0,0 -0.03147,1.25865 0.692256,1.54184 0.723723,0.2832 1.258647,-2.35996 1.258647,-2.35996 0,0 0.139575,-0.58917 0.0944,-0.88106 -0.05738,-0.37075 -0.754752,-2.2088 -1.132782,-2.70609 -0.368925,-0.48532 -0.56629,-0.97566 -1.415878,-1.07005 -0.849585,-0.0944 -1.4534,0.007 -1.112454,0.56602 0.184642,0.30278 1.43146,1.07484 1.458479,1.63682 z"
         id="path8933"
         sodipodi:nodetypes="scscsssss" />
      <path
         style="fill:#000000;stroke:none;stroke-width:0.264583px;stroke-linecap:butt;stroke-linejoin:miter;stroke-opacity:1"
         d="m 80.270939,111.02397 c 0,0 0.214567,1.58697 0.121757,2.56155 -0.09282,0.97458 0.480358,2.26017 0.782015,2.56182 0.301657,0.30166 0.822693,1.13702 1.797278,1.11381 0.974585,-0.0232 1.69392,-0.0163 1.69392,-0.0163 0,0 0.642789,-0.0997 1.060469,-0.58704 0.417679,-0.48729 0.124157,-1.09995 0.124157,-1.09995 0,0 -0.301657,-1.08367 -0.371271,-1.50135 -0.06961,-0.41768 -0.19257,-1.36785 -0.19257,-1.80874 0,-0.44088 -0.185634,-0.75188 -0.719336,-1.3784 -0.533699,-0.62652 -0.828423,-1.54997 -0.828423,-1.54997 0,0 -0.09669,-0.47466 -0.02707,-0.6603 0.06961,-0.18563 0.427273,-0.38742 0.589706,-0.41062 0.162431,-0.0232 0.464087,-0.0928 0.812152,-0.0928 0.348067,0 0.58011,0.0696 0.997789,-0.0464 0.417679,-0.11602 0.278453,-0.32486 0.301659,-0.44088 0.0232,-0.11603 -0.696132,-0.90497 -1.067403,-0.95138 -0.371271,-0.0464 -2.575687,0.37127 -2.575687,0.37127 0,0 -1.975024,0.39812 -2.521282,1.25875 -0.623896,0.98295 0.02214,2.67689 0.02214,2.67689 z"
         id="path10366"
         sodipodi:nodetypes="cssscscssscsssssscscc" />
      <path
         style="fill:#000000;stroke:none;stroke-width:0.264583px;stroke-linecap:butt;stroke-linejoin:miter;stroke-opacity:1"
         d="m 78.827579,105.58263 c -0.13966,0.10474 -3.095183,2.31139 -1.07819,5.63055 2.181008,3.58906 0.992414,-0.22594 1.437585,-2.03658 0.370853,-1.50837 1.19799,-2.11645 1.19799,-2.11645 0,0 0.519126,-0.63892 2.475838,-0.59899 1.268018,0.0508 1.419403,-0.66906 2.795305,-0.1198 1.038256,0.43926 -0.573857,-0.93429 -0.918456,-1.11812 -0.258349,-0.13782 -3.021309,-1.80702 -5.910072,0.35939 z"
         id="path11207"
         sodipodi:nodetypes="ssscccss" />
      <path
         style="fill:#000000;stroke:none;stroke-width:0.264583px;stroke-linecap:butt;stroke-linejoin:miter;stroke-opacity:1"
         d="m 78.264789,113.09971 c -0.02038,-0.0153 1.160396,0.5168 1.220465,1.31355 0.04279,0.56763 -1.168749,-0.63092 -1.292865,-0.97224 -0.124113,-0.34131 0.0724,-0.34131 0.0724,-0.34131 z"
         id="path12125"
         sodipodi:nodetypes="cssc" />
      <path
         style="fill:#000000;stroke:none;stroke-width:0.264583px;stroke-linecap:butt;stroke-linejoin:miter;stroke-opacity:1"
         d="m 93.770848,115.23646 c -0.113727,-0.17953 2.503765,-3.09197 8.054162,-2.8062 4.23903,0.21825 0.51879,3.95181 -2.769758,4.00886 -3.288544,0.0571 -4.348063,0.27548 -5.284404,-1.20266 z"
         id="path12624"
         sodipodi:nodetypes="sszs" />
      <path
         style="fill:#000000;stroke:none;stroke-width:0.264583px;stroke-linecap:butt;stroke-linejoin:miter;stroke-opacity:1"
         d="m 94.791285,118.04266 c -0.643119,-0.68099 2.36887,0.43734 5.831065,-0.25506 3.4622,-0.69244 -2.879089,1.67642 -3.389306,1.63998 -1.293199,-0.0229 -1.688786,-0.5876 -2.441759,-1.38492 z"
         id="path13504"
         sodipodi:nodetypes="sccs" />
      <path
         style="fill:#000000;stroke:none;stroke-width:0.264583px;stroke-linecap:butt;stroke-linejoin:miter;stroke-opacity:1"
         d="m 105.16105,116.16439 c 0,0 1.89075,-0.51475 4.2023,-0.98399 0,0 -2.07843,-1.63327 -4.2023,0.98399 z"
         id="path13871"
         sodipodi:nodetypes="ccc" />
      <path
         style="fill:#000000;stroke:none;stroke-width:0.264583px;stroke-linecap:butt;stroke-linejoin:miter;stroke-opacity:1"
         d="m 105.41533,112.5506 c 0.01,-0.011 -0.56789,0.004 -0.85724,1.41192 -0.18954,0.92208 0.22692,1.10937 0.22692,1.10937 1.54714,-1.07701 2.08705,-0.98573 3.05077,-1.10936 0.95129,-0.12203 -1.89024,-1.19739 -2.42045,-1.41193 z"
         id="path14485"
         sodipodi:nodetypes="cscsc" />
      <path
         style="fill:#000000;stroke:none;stroke-width:0.264583px;stroke-linecap:butt;stroke-linejoin:miter;stroke-opacity:1"
         d="m 106.56795,112.18704 c 0,0 2.39229,0.91797 3.56062,2.14193 1.16832,1.22396 0.11126,-1.19614 0.11126,-1.19614 0,0 -1.02924,-1.64122 -2.97645,-1.64122 -2.4536,-10e-6 -0.69543,0.69543 -0.69543,0.69543 z"
         id="path15051"
         sodipodi:nodetypes="cscsc" />
      <path
         style="fill:#000000;stroke:none;stroke-width:0.264583px;stroke-linecap:butt;stroke-linejoin:miter;stroke-opacity:1"
         d="m 113.04938,115.99801 c 0,0 0.75106,-0.50071 0.0556,-2.72609 -0.69543,-2.22539 -2.39229,-1.66904 -2.39229,-1.66904 l -0.25035,0.25035 c 0,0 0.33381,0.0556 0.50071,0.33381 0.1669,0.27817 0.47289,0.66761 0.55635,0.9736 0.0834,0.306 0.44507,1.52995 0.66761,1.86376 0.22254,0.33381 0.6398,0.44508 0.6398,0.44508 z"
         id="path15399" />
      <path
         style="fill:#000000;stroke:none;stroke-width:0.264583px;stroke-linecap:butt;stroke-linejoin:miter;stroke-opacity:1"
         d="m 113.76613,112.22571 c 0.0292,-0.23572 1.25159,1.05904 1.47623,1.41205 0.22464,0.35301 1.12322,3.65849 1.6046,4.33242 0.48138,0.67393 -2.05389,-1.09113 -2.34272,-1.47623 -0.28883,-0.38511 -0.41719,-1.2195 -0.41719,-1.2195 0,0 -0.4172,-1.95761 -0.4172,-2.34272 0.0604,-0.27994 0.0835,-0.60269 0.0963,-0.70602 z"
         id="path15500"
         sodipodi:nodetypes="ssssccs" />
      <path
         style="fill:#000000;stroke:none;stroke-width:0.264583px;stroke-linecap:butt;stroke-linejoin:miter;stroke-opacity:1"
         d="m 118.03641,120.43501 c 0.47341,-0.82057 -1.89363,-1.98831 -1.89363,-1.98831 0,0 -4.29224,-3.2823 -1.89363,1.29398 1.35474,2.72509 0.70989,4.055 3.78726,0.69433 z"
         id="path15734"
         sodipodi:nodetypes="cccc" />
      <path
         style="fill:#000000;stroke:none;stroke-width:0.264583px;stroke-linecap:butt;stroke-linejoin:miter;stroke-opacity:1"
         d="m 116.0481,123.18078 c 0,0 0.85213,1.29398 0.97837,1.79895 0.12624,0.50497 -0.1578,0.94681 -0.1578,0.94681 0,0 -1.64115,-1.64114 -0.82057,-2.74576 z"
         id="path15892" />
      <path
         style="fill:#000000;stroke:none;stroke-width:0.264583px;stroke-linecap:butt;stroke-linejoin:miter;stroke-opacity:1"
         d="m 117.563,121.82367 c 0,0 0.74219,-1.31138 1.95676,-0.1578 0.41123,0.39058 0.89076,0.822 1.07305,1.13618 0.12487,0.21521 -0.2099,0.004 -0.74643,0.004 -0.53653,0 0.2099,0.50091 0.36771,0.62715 0.1578,0.12624 0.47341,0.53653 0.53653,0.85214 0.0631,0.3156 -0.34502,0.19172 -0.47341,0.0947 -0.20467,-0.15467 -0.0743,-0.21752 -0.63121,-0.59965 -0.58596,-0.40205 0.0369,0.70653 0.0369,0.70653 0,0 0.35307,0.37431 0.41619,0.87928 0.0631,0.50497 -0.21419,0.14828 -0.69303,-0.30869 -0.36887,-0.35201 -0.9278,-0.55123 -0.9278,-0.39343 0,0.1578 -0.0316,0.37873 0.56809,0.8837 0.59965,0.50497 -0.0631,0.56809 -0.0631,0.56809 0,0 -0.89148,-0.43753 -1.17553,-0.84782 -0.28404,-0.41029 -0.65499,-1.17206 -0.74967,-1.42454 -0.0947,-0.25249 -0.25248,-0.37873 -0.34716,-0.75745 -0.0947,-0.37873 0.85213,-1.26243 0.85213,-1.26243 z"
         id="path15993"
         sodipodi:nodetypes="cssssssscsssscssscc" />
      <path
         style="display:inline;fill:#000000;stroke:none;stroke-width:0.264583px;stroke-linecap:butt;stroke-linejoin:miter;stroke-opacity:1"
         d="m 99.483946,121.05113 c 0,0 -4.704609,8.82775 -4.017417,14.06097 0.687189,5.23321 3.753111,8.72202 5.180351,9.56779 1.42724,0.84578 -2.114429,0.47575 -2.114429,0.47575 0,0 -1.744405,-0.37002 -3.435948,-0.47575 -1.691544,-0.10572 -3.224506,-5.6561 -3.224506,-5.6561 0,0 -1.37438,-5.55038 0.74005,-10.51929 2.114431,-4.96891 6.871899,-7.45337 6.871899,-7.45337 z"
         id="path969" />
      <path
         style="fill:#000000;stroke:none;stroke-width:0.264583px;stroke-linecap:butt;stroke-linejoin:miter;stroke-opacity:1"
         d="m 87.812215,184.19486 c 0,0 -1.525482,1.58095 -0.08321,3.99398 1.442273,2.41304 1.470009,-0.77661 1.470009,-0.77661 0,0 -0.166418,-2.02473 -0.665665,-2.55171 -0.499248,-0.52698 -0.721135,-0.66566 -0.721134,-0.66566 z"
         id="path3106" />
      <path
         style="fill:#000000;stroke:none;stroke-width:0.264583px;stroke-linecap:butt;stroke-linejoin:miter;stroke-opacity:1"
         d="m 85.205029,185.02694 c 0,0 -1.886048,1.52548 -0.693401,4.4655 1.192649,2.94001 2.634922,2.41303 2.634922,2.41303 0,0 1.192649,-0.16642 0.748871,-1.52548 -0.443775,-1.35907 -0.804344,-1.44227 -0.804344,-1.44227 0,0 -1.10944,-0.91529 -0.859816,-2.71814 0.249623,-1.80283 -1.026232,-1.19264 -1.026232,-1.19264 z"
         id="path3207" />
      <path
         style="fill:#000000;stroke:none;stroke-width:0.264583px;stroke-linecap:butt;stroke-linejoin:miter;stroke-opacity:1"
         d="m 83.137363,187.44461 c 0,0 -4.486333,-2.66376 -3.575047,-7.92118 0.911286,-5.25742 3.855442,-0.1402 3.855442,-0.1402 0,0 1.45429,3.25877 1.343816,4.36351 -0.110474,1.10475 -1.646544,2.20343 -1.624211,3.69787 z"
         id="path3308" />
      <path
         style="fill:#000000;stroke:none;stroke-width:0.264583px;stroke-linecap:butt;stroke-linejoin:miter;stroke-opacity:1"
         d="m 112.80739,166.94671 c 0,0 3.56812,-0.13724 4.666,-0.61756 1.09789,-0.48033 0.89203,7.89103 0.89203,7.89103 0,0 -0.41171,2.40161 -1.85267,2.333 -1.44098,-0.0686 -2.60748,-3.29365 -2.60748,-3.29365 0,0 -0.0686,-5.21494 -1.09788,-6.31282 z"
         id="path3376" />
      <path
         style="fill:#000000;stroke:none;stroke-width:0.264583px;stroke-linecap:butt;stroke-linejoin:miter;stroke-opacity:1"
         d="m 118.53059,166.16627 1.52352,-0.94797 c 0,0 0.88026,2.26836 0.40628,6.43268 -0.47399,4.16431 -1.21882,-0.44013 -1.21882,-0.44013 0,0 0.50784,-2.20066 -0.71098,-5.04458 z"
         id="path3444"
         sodipodi:nodetypes="ccscc" />
      <path
         style="fill:#000000;stroke:none;stroke-width:0.264583px;stroke-linecap:butt;stroke-linejoin:miter;stroke-opacity:1"
         d="m 114.31865,175.74706 c 0,0 1.08176,1.54537 1.93171,1.77718 0.84996,0.2318 1.85445,-0.69542 1.85445,-0.69542 0,0 1.73854,-1.73854 0.65678,0.65678 -1.08176,2.39532 -2.00898,2.31806 -2.00898,2.31806 0,0 -1.89308,0.30907 -2.58849,2.39532 -0.69542,2.08624 -2.54986,0.50224 -2.54986,0.50224 0,0 0.65678,-1.97034 1.27493,-2.27942 0.61815,-0.30907 0.38634,-2.27942 0.38634,-2.27942 0,0 -0.19317,-1.39083 1.04312,-2.39532 z"
         id="path3566" />
      <path
         style="fill:#000000;stroke:none;stroke-width:0.264583px;stroke-linecap:butt;stroke-linejoin:miter;stroke-opacity:1"
         d="m 113.04373,174.47213 c 0,0 -1.42947,1.93171 -1.58401,4.55884 -0.15453,2.62713 0.95708,0.72716 0.95708,0.72716 0,0 -0.53046,-1.68419 0.8222,-3.80601 1.35267,-2.12183 -0.19527,-1.47999 -0.19527,-1.47999 z"
         id="path3634" />
      <path
         style="fill:#000000;stroke:none;stroke-width:0.264583px;stroke-linecap:butt;stroke-linejoin:miter;stroke-opacity:1"
         d="m 108.97261,181.38822 0.88052,3.6132 0.88053,-1.42706 c 0,0 -0.5769,-3.8561 -0.48581,-4.58481 0.0911,-0.72871 -0.97162,-0.0911 -0.97162,-0.0911 0,0 -1.0627,0.0607 -0.30362,2.48976 z"
         id="path3786" />
      <path
         style="fill:#000000;stroke:none;stroke-width:0.264583px;stroke-linecap:butt;stroke-linejoin:miter;stroke-opacity:1"
         d="m 111.34091,183.48327 c 0,0 0.39473,0.88052 2.09505,0.66798 1.70033,-0.21254 1.15379,0.75908 0.97161,1.1538 -0.18218,0.39471 -0.18218,2.24685 0.33399,3.15774 0.51617,0.91089 0.27327,1.45742 0.27327,1.45742 0,0 -0.75907,1.57888 -2.7023,0.33399 -1.94323,-1.24488 -1.85214,-4.61516 -1.85214,-4.61516 0,0 -0.12145,-1.21452 0.88052,-2.15577 z"
         id="path3854"
         sodipodi:nodetypes="cssscscc" />
      <circle
         style="display:inline;fill:#000000;stroke:none;stroke-width:1;stroke-linejoin:bevel"
         id="path4039"
         cx="129.58553"
         cy="191.5016"
         r="0.25585154" />
      <circle
         style="display:inline;fill:#000000;stroke:none;stroke-width:1;stroke-linejoin:bevel"
         id="path4041"
         cx="130.25467"
         cy="192.11829"
         r="0.25585154" />
      <circle
         style="display:inline;fill:#000000;stroke:none;stroke-width:1;stroke-linejoin:bevel"
         id="path4043"
         cx="130.95007"
         cy="191.47537"
         r="0.24273096" />
      <circle
         style="display:inline;fill:#000000;stroke:none;stroke-width:1;stroke-linejoin:bevel"
         id="path4045"
         cx="130.8123"
         cy="192.71524"
         r="0.24929126" />
      <circle
         style="display:inline;fill:#000000;stroke:none;stroke-width:1;stroke-linejoin:bevel"
         id="path4047"
         cx="131.69795"
         cy="191.51472"
         r="0.25585154" />
      <circle
         style="display:inline;fill:#000000;stroke:none;stroke-width:1;stroke-linejoin:bevel"
         id="path4049"
         cx="132.80664"
         cy="191.52129"
         r="0.26241183" />
      <circle
         style="display:inline;fill:#000000;stroke:none;stroke-width:1;stroke-linejoin:bevel"
         id="path4051"
         cx="132.17029"
         cy="192.18387"
         r="0.26897213" />
      <circle
         style="display:inline;fill:#000000;stroke:none;stroke-width:1;stroke-linejoin:bevel"
         id="path4053"
         cx="132.81975"
         cy="192.1642"
         r="0.27553242" />
      <circle
         style="display:inline;fill:#000000;stroke:none;stroke-width:1;stroke-linejoin:bevel"
         id="path4055"
         cx="132.17685"
         cy="192.82022"
         r="0.26241183" />
      <path
         style="fill:#000000;stroke:none;stroke-width:0.264583px;stroke-linecap:butt;stroke-linejoin:miter;stroke-opacity:1"
         d="m 46.02427,16.20139 c 0.51205,0.18381 -0.74005,5.81468 1.00436,9.19777 1.7444,3.38309 4.28172,7.92911 4.28172,7.92911 0,0 1.95585,3.06593 2.22015,5.1275 0.2643,2.06157 -3.33023,2.53731 -3.33023,2.53731 0,0 -3.11878,0.31717 -5.49752,-3.11878 -2.378731,-3.43595 -3.224503,-3.9117 -2.960198,-8.72203 0.264303,-4.81032 1.618533,-7.77432 1.618533,-7.77432 0,0 1.897325,-5.45148 2.663185,-5.17656 z"
         id="path1038"
         sodipodi:nodetypes="sscscsscs"
         transform="translate(55.36266,104.47972)" />
      <path
         style="fill:#000000;stroke:none;stroke-width:0.264583px;stroke-linecap:butt;stroke-linejoin:miter;stroke-opacity:1"
         d="m 47.59493,17.68964 4.89027,6.81144 c 0,0 3.84235,4.9776 4.80294,7.42273 0.96059,2.44513 1.74653,5.50155 2.61979,6.11283 0.87326,0.61129 -2.27048,0.69861 -2.53246,0.52396 -0.26198,-0.17465 -2.88177,-1.48454 -4.27899,-4.71561 -1.39722,-3.23107 -3.31839,-6.02551 -3.31839,-6.02551 0,0 -1.57187,-2.27048 -2.0085,-5.06492 -0.43664,-2.79444 -0.17466,-5.06492 -0.17466,-5.06492 z"
         id="path1234"
         transform="translate(55.36266,104.47972)" />
      <path
         style="fill:#000000;stroke:none;stroke-width:0.264583px;stroke-linecap:butt;stroke-linejoin:miter;stroke-opacity:1"
         d="m 55.45429,41.00573 c 0,0 6.02551,2.70712 7.07343,4.01701 1.04791,1.30989 1.43639,1.14275 1.43639,1.14275 0,0 -1.29476,-5.77281 -4.04004,-6.20551 -1.46962,-0.38944 -3.6302,-0.68667 -4.46978,1.04571 z"
         id="path1335"
         sodipodi:nodetypes="cscccc"
         transform="translate(55.36266,104.47972)" />
      <path
         style="fill:#000000;stroke:none;stroke-width:0.264583px;stroke-linecap:butt;stroke-linejoin:miter;stroke-opacity:1"
         d="m 47.80283,42.64866 c 0,0 4.4756,-0.62319 6.23185,-0.50988 1.75625,0.1133 4.64557,1.69959 5.15545,2.26613 0.50987,0.56653 1.98286,1.01975 3.90906,3.6258 1.92621,2.60605 2.49274,5.43871 2.49274,5.43871 0,0 1.07642,3.6258 -0.84979,4.98548 -1.92621,1.35968 -0.62319,-0.56653 -1.47299,-2.37943 -0.84979,-1.81291 -2.60604,-4.02238 -2.60604,-4.02238 0,0 -2.37944,-3.39919 -5.49536,-4.87218 -3.11593,-1.47298 -3.85242,-1.69959 -3.85242,-1.69959 0,0 -3.00262,-1.86956 -3.5125,-2.83266 z"
         id="path1683"
         sodipodi:nodetypes="cssscsscscc"
         transform="translate(55.36266,104.47972)" />
      <path
         style="fill:#000000;stroke:none;stroke-width:0.264583px;stroke-linecap:butt;stroke-linejoin:miter;stroke-opacity:1"
         d="m 45.87662,42.76196 c 0,0 4.70222,3.68246 6.34516,4.47561 1.64294,0.79314 2.71935,1.52963 2.71935,1.52963 0,0 5.49536,3.73911 6.51512,6.68508 1.01976,2.94597 3.62581,4.75887 -1.47298,5.09879 -5.09879,0.33992 -6.1752,-4.4756 -6.1752,-4.4756 0,0 -0.62319,-3.90907 -2.37944,-6.00524 -1.75625,-2.09617 -3.05927,-3.73912 -3.05927,-3.73912 z"
         id="path1822"
         transform="translate(55.36266,104.47972)" />
      <path
         style="fill:#000000;stroke:none;stroke-width:0.264583px;stroke-linecap:butt;stroke-linejoin:miter;stroke-opacity:1"
         d="m 49.65839,50.16822 c 0.6408,2.49202 0.19735,2.24734 -0.2593,2.97036 -0.45664,0.72302 -1.40798,1.94074 -1.40798,1.94074 0,0 -0.45665,-5.67 -2.70181,-7.03993 -2.24517,-1.36993 -5.099193,-2.66376 -6.621341,-2.0549 -1.522148,0.60886 -1.5602,0.11416 -1.179663,-0.87523 0.380537,-0.9894 0.266374,-1.75047 1.598252,-3.38678 3.359419,-2.15442 9.968312,5.83025 10.571842,8.44574 z"
         id="path1923"
         sodipodi:nodetypes="cscssscc"
         transform="translate(55.36266,104.47972)" />
      <path
         style="fill:#000000;stroke:none;stroke-width:0.264583px;stroke-linecap:butt;stroke-linejoin:miter;stroke-opacity:1"
         d="m 36.879436,49.98013 c 0,0 3.767313,-2.0549 5.669997,0.68496 1.902683,2.73987 2.207107,5.32751 2.207107,5.32751 0.58049,2.36363 2.51155,-0.0761 2.51155,-0.0761 0,0 -1.14161,-5.28946 -2.66376,-6.77355 -1.522145,-1.4841 -2.625701,-2.09296 -4.071741,-2.28323 -1.446041,-0.19026 -2.777919,-0.30442 -3.272616,0.87524 -0.494699,1.17966 -0.380537,2.24517 -0.380537,2.24517 z"
         id="path2119"
         sodipodi:nodetypes="csscsssc"
         transform="translate(55.36266,104.47972)" />
      <path
         style="fill:#000000;stroke:none;stroke-width:0.264583px;stroke-linecap:butt;stroke-linejoin:miter;stroke-opacity:1"
         d="m 35.471451,53.25274 c 0,0 7.720052,-4.29197 5.593888,3.38678 -2.782544,10.04931 2.374053,1.84908 2.397382,1.86463 0,0 0.494698,-5.40362 -0.913288,-6.65939 -1.407985,-1.25578 -4.071744,-3.27262 -7.077982,1.40798 z"
         id="path2391"
         sodipodi:nodetypes="cscsc"
         transform="translate(55.36266,104.47972)" />
      <path
         style="fill:#000000;stroke:none;stroke-width:0.264583px;stroke-linecap:butt;stroke-linejoin:miter;stroke-opacity:1"
         d="m 35.459902,64.43183 c 0,0 -0.41797,-7.14903 0.386818,-9.52508 0.804788,-2.37604 3.602387,-1.99281 3.602387,-1.99281 0,0 2.759276,-0.34491 0.07665,5.94011 -2.682629,6.28502 -4.065852,5.57778 -4.065852,5.57778 z"
         id="path2777"
         transform="translate(55.36266,104.47972)" />
      <path
         style="fill:#000000;stroke:none;stroke-width:0.264583px;stroke-linecap:butt;stroke-linejoin:miter;stroke-opacity:1"
         d="m 34.583612,57.20419 c 0,0 -3.802604,9.06775 -3.217589,11.99284 0.585017,2.92508 -0.292508,8.9215 -0.292508,8.9215 0,0 1.828176,-3.36385 2.925083,-9.50652 1.096904,-6.14267 0.585014,-11.40782 0.585014,-11.40782 z"
         id="path2878"
         transform="translate(55.36266,104.47972)" />
      <path
         style="fill:#000000;stroke:none;stroke-width:0.264583px;stroke-linecap:butt;stroke-linejoin:miter;stroke-opacity:1"
         d="m 37.801202,64.22439 c 0,0 1.462543,2.9982 -2.340064,11.70032 -4.923765,11.26785 -0.731269,-7.38583 -0.731269,-7.38583 0,0 1.023779,-4.09511 3.071333,-4.31449 z"
         id="path2946"
         sodipodi:nodetypes="cscc"
         transform="translate(55.36266,104.47972)" />
    </g>
  </g>
</svg>
